<svg xmlns="http://www.w3.org/2000/svg" viewBox="0 0 1042.94 829.7"><defs><style>.cls-1{fill:#fff;}</style></defs><title>isotipo4</title><g id="Capa_2" data-name="Capa 2"><g id="Capa_8" data-name="Capa 8"><path class="cls-1" d="M920.85,894.74a66.29,66.29,0,0,1-3.27,20.58q-6.29,11.74-13.28,23.06a65.77,65.77,0,1,1,16.55-43.64Z" transform="translate(-95.02 -316.47)"/><path class="cls-1" d="M855.1,960.5a65.62,65.62,0,0,0,49.2-22.12c-77,124.7-214.87,207.79-372.19,207.79-144.88,0-273.3-70.48-352.83-179a437.48,437.48,0,0,0,476.3,26,346.39,346.39,0,0,0,80.11-59.36,439.31,439.31,0,0,0,63.78-74.59l.22.13A65.79,65.79,0,0,0,855.1,960.5Z" transform="translate(-95.02 -316.47)"/><path class="cls-1" d="M653.34,512.75a197.63,197.63,0,0,1-5.63,46.92c.31-4.31.44-8.66.44-13,0-108.95-88.32-197.28-197.27-197.28a197.44,197.44,0,0,0-45.66,5.32,348.07,348.07,0,0,1,166-2.11A197,197,0,0,1,653.34,512.75Z" transform="translate(-95.02 -316.47)"/><path class="cls-1" d="M571.18,352.55a348.07,348.07,0,0,0-166,2.11,193,193,0,0,0-19.05,5.55,344.39,344.39,0,0,0-99.43,51.31,197.13,197.13,0,0,1,142.15-94.16q12.33-.9,24.89-.89a348.4,348.4,0,0,1,35.28,1.78h0A196,196,0,0,1,571.18,352.55Z" transform="translate(-95.02 -316.47)"/><path class="cls-1" d="M492.46,1034a343.75,343.75,0,0,0,163.12-40.88,437.48,437.48,0,0,1-476.3-26,437.42,437.42,0,0,1-23.17-481.06l.28.18a343.61,343.61,0,0,0-47.83,175.43c0,125.58,67.07,235.51,167.33,295.93A343.78,343.78,0,0,0,492.46,1034Z" transform="translate(-95.02 -316.47)"/><path class="cls-1" d="M405.22,354.66c-6.42,1.67-12.79,3.52-19.05,5.55A193,193,0,0,1,405.22,354.66Z" transform="translate(-95.02 -316.47)"/><path class="cls-1" d="M428.89,317.36a197.13,197.13,0,0,0-142.15,94.16c-84.65,62.9-139.5,163.68-139.5,277.25,0,108.65,50.19,205.57,128.65,268.85C175.63,897.2,108.56,787.27,108.56,661.69a343.61,343.61,0,0,1,47.83-175.43C212.51,391.35,312.75,325.63,428.89,317.36Z" transform="translate(-95.02 -316.47)"/><path class="cls-1" d="M1068.06,499.79s115.75,58.38,49.35,180.79c-26,51.92-81.9,60.84-90.45,65.36-24.67,13-46.21,36.53-57.92,50s-31.32,5-31.32,5l-13.6-7.37-23.79-12.91-17-9.23s-17.79-11.83-12.89-29,16.89-39.24,13.71-74c-.87-9.62-24-57,5.47-111.46C953.24,439.71,1068.06,499.79,1068.06,499.79Zm3.93,38a13,13,0,0,0-3.11-17.19c-34.65-26.51-69.32-22.59-86.28-18.2a12.86,12.86,0,0,0-9.46,14.38c0,.1,0,.2.06.3a12.81,12.81,0,0,0,13.47,10.79c32.48-2.23,54.92,7.55,67,15a12.87,12.87,0,0,0,17.71-4.1C1071.58,538.48,1071.78,538.15,1072,537.83Zm-105.7,3.57a17.41,17.41,0,1,0-23.61,7A17.4,17.4,0,0,0,966.29,541.4Z" transform="translate(-95.02 -316.47)"/><path class="cls-1" d="M1045.21,751.43s28.91,66.38-18.45,130.34L957.51,976.9c-9.64,11.86-28.45,1-23-13.28l53.17-168S1013.5,763.21,1045.21,751.43Z" transform="translate(-95.02 -316.47)"/><path class="cls-1" d="M940.61,810.86l-5.92,8.58s-8.54,15.74-41.61-2.2-24.51-33.65-24.51-33.65l6.51-10.09Z" transform="translate(-95.02 -316.47)"/><path class="cls-1" d="M867.56,656.26c7.75,32.92-4.92,72.35-4.92,72.35L752.23,866c-8.87,12.44-28.31,2.8-23.79-11.78l40.83-110.37C796.25,669,867.56,656.26,867.56,656.26Z" transform="translate(-95.02 -316.47)"/></g></g></svg>